<?xml version="1.0" standalone="no"?>
<!DOCTYPE svg PUBLIC "-//W3C//DTD SVG 20010904//EN"
 "http://www.w3.org/TR/2001/REC-SVG-20010904/DTD/svg10.dtd">
<svg version="1.0" xmlns="http://www.w3.org/2000/svg"
 width="344.000000pt" height="344.000000pt" viewBox="0 0 344.000000 344.000000"
 preserveAspectRatio="xMidYMid meet">

<g transform="translate(0.000000,344.000000) scale(0.100000,-0.100000)"
fill="#000000" stroke="none">
<path d="M2952 2664 c-33 -23 -28 -82 10 -103 61 -35 123 31 81 87 -24 32 -59
39 -91 16z"/>
<path d="M405 2485 c-14 -13 -25 -33 -25 -45 0 -29 35 -60 68 -60 57 0 83 69
42 110 -27 27 -56 25 -85 -5z"/>
<path d="M920 2474 c-40 -14 -63 -31 -76 -56 -12 -22 -14 -121 -14 -567 l0
-541 29 -32 29 -33 286 -3 286 -3 0 -68 c0 -83 -21 -117 -78 -126 -87 -15
-112 -36 -112 -98 0 -23 8 -41 26 -58 l26 -24 398 0 398 0 25 23 c31 29 38 61
22 99 -13 31 -43 47 -107 58 -57 9 -78 43 -78 126 l0 68 286 3 286 3 29 33 29
32 0 540 c0 386 -3 546 -12 564 -6 14 -23 34 -37 43 -24 17 -80 18 -826 20
-440 1 -807 -1 -815 -3z m1626 -68 c12 -16 14 -93 14 -438 l0 -418 -840 0
-840 0 0 418 c0 431 1 441 40 455 8 3 374 5 813 4 778 -2 799 -3 813 -21z m24
-985 c0 -73 -3 -93 -19 -112 l-19 -24 -812 0 -812 0 -19 24 c-16 19 -19 39
-19 112 l0 89 850 0 850 0 0 -89z m-640 -248 c0 -89 21 -131 80 -160 24 -13
56 -23 70 -23 46 0 64 -34 34 -64 -13 -14 -63 -16 -394 -16 -331 0 -381 2
-394 16 -9 8 -16 21 -16 28 0 33 32 40 201 46 194 6 235 23 67 28 l-107 3 19
32 c15 24 20 50 20 105 l0 72 210 0 210 0 0 -67z"/>
<path d="M964 2327 c-2 -7 -3 -96 -2 -197 3 -157 5 -185 18 -185 13 0 15 28
18 178 l2 177 689 0 c564 0 691 2 700 13 6 8 8 17 4 20 -3 4 -325 7 -715 7
-567 0 -710 -3 -714 -13z"/>
<path d="M2447 2154 c-4 -4 -7 -119 -7 -256 l0 -248 -719 0 -720 0 -3 38 c-2
25 -8 37 -18 37 -20 0 -27 -94 -8 -106 17 -11 1479 -11 1496 -1 9 7 12 68 10
272 -3 250 -7 287 -31 264z"/>
<path d="M1674 1425 c-20 -31 -15 -53 17 -77 52 -39 111 22 75 77 -22 34 -70
34 -92 0z m70 2 c38 -27 -2 -95 -41 -71 -25 16 -29 55 -7 71 10 7 21 13 24 13
3 0 14 -6 24 -13z"/>
<path d="M1740 1015 c0 -12 15 -15 75 -15 60 0 75 3 75 15 0 12 -15 15 -75 15
-60 0 -75 -3 -75 -15z"/>
<path d="M816 494 c-27 -26 -24 -71 6 -96 59 -51 136 34 83 92 -22 24 -68 26
-89 4z"/>
</g>
</svg>
